<?xml version="1.0" encoding="utf-8"?>
<!-- Generator: Adobe Illustrator 16.0.0, SVG Export Plug-In . SVG Version: 6.00 Build 0)  -->
<!DOCTYPE svg PUBLIC "-//W3C//DTD SVG 1.1//EN" "http://www.w3.org/Graphics/SVG/1.1/DTD/svg11.dtd">
<svg version="1.1" id="Layer_1" xmlns="http://www.w3.org/2000/svg" xmlns:xlink="http://www.w3.org/1999/xlink" x="0px" y="0px"
	 width="286px" height="199.5px" viewBox="74.885 -158.972 286 199.5" enable-background="new 74.885 -158.972 286 199.5"
	 xml:space="preserve">
<g>
	<path fill="#FDC645" d="M167.413-93.782h166.948l1.774-11.817c0-0.094,0-0.187,0-0.327c0-0.747-0.421-1.494-1.074-2.148
		c-0.936-0.935-2.243-1.588-3.645-1.774c-0.279-0.047-0.56-0.047-0.888-0.047H175.168l7.941-16.489h147.42
		c1.073,0,2.149,0.094,3.225,0.28c4.856,0.7,9.434,3.036,12.798,6.353c3.69,3.597,6.025,8.408,6.025,13.826
		c0,0.841-0.046,1.729-0.187,2.663L335.9,7.814c-0.793,5.605-3.269,10.838-7.052,14.621c-3.783,3.784-8.782,6.119-14.761,6.119
		h-0.794H172.88H91.041H78.056l5.561-11.725l70.531-148.728H89.267v-16.442h77.868h12.985l-5.559,11.725L104.027,12.112h68.853
		h140.414h0.794c1.26,0,2.334-0.513,3.129-1.308c1.262-1.262,2.148-3.176,2.429-5.371l8.174-55.073H146.114L167.413-93.782z
		 M180.635-13.858h104.353c2.476,0,4.529,2.054,4.529,4.577l0,0c0,2.523-2.054,4.578-4.529,4.578H180.635
		c-2.477,0-4.533-2.055-4.533-4.578l0,0C176.102-11.805,178.158-13.858,180.635-13.858z M267.282-38.615h19.993
		c2.522,0,4.578,2.055,4.578,4.577l0,0c0,2.522-2.056,4.577-4.578,4.577h-19.993c-2.521,0-4.577-2.055-4.577-4.577l0,0
		C262.705-36.561,264.762-38.615,267.282-38.615z M196.189-38.615h52.923c2.521,0,4.578,2.055,4.578,4.577l0,0
		c0,2.522-2.057,4.577-4.578,4.577h-52.923c-2.524,0-4.577-2.055-4.577-4.577l0,0C191.612-36.561,193.665-38.615,196.189-38.615z"/>
</g>
</svg>
